<svg width="48" height="48" viewBox="0 0 48 48" fill="none" xmlns="http://www.w3.org/2000/svg">
<rect width="48" height="48" rx="8" fill="white"/>
<g clip-path="url(#clip0_269_1614)">
<path d="M35.766 24.2764C35.766 23.4607 35.6999 22.6406 35.5588 21.8381H24.24V26.4591H30.7217C30.4528 27.9494 29.5885 29.2678 28.323 30.1056V33.1039H32.19C34.4608 31.0139 35.766 27.9274 35.766 24.2764Z" fill="#4285F4"/>
<path d="M24.2401 36.0008C27.4766 36.0008 30.2059 34.9382 32.1945 33.1039L28.3276 30.1055C27.2517 30.8375 25.8627 31.252 24.2445 31.252C21.1139 31.252 18.4595 29.1399 17.507 26.3003H13.5166V29.3912C15.5537 33.4434 19.7029 36.0008 24.2401 36.0008Z" fill="#34A853"/>
<path d="M17.5025 26.3003C16.9999 24.8099 16.9999 23.1961 17.5025 21.7057V18.6148H13.5165C11.8145 22.0056 11.8145 26.0004 13.5165 29.3912L17.5025 26.3003Z" fill="#FBBC04"/>
<path d="M24.2401 16.7497C25.9509 16.7232 27.6044 17.367 28.8434 18.5487L32.2695 15.1226C30.1001 13.0855 27.2208 11.9655 24.2401 12.0008C19.7029 12.0008 15.5537 14.5582 13.5166 18.6148L17.5026 21.7057C18.4506 18.8617 21.1095 16.7497 24.2401 16.7497Z" fill="#EA4335"/>
</g>
<rect x="0.5" y="0.5" width="47" height="47" rx="7.5" stroke="#575757" stroke-opacity="0.2"/>
<defs>
<clipPath id="clip0_269_1614">
<rect width="24" height="24" fill="white" transform="translate(12 12)"/>
</clipPath>
</defs>
</svg>
