<svg width="48" height="48" viewBox="0 0 48 48" fill="none" xmlns="http://www.w3.org/2000/svg">
<rect width="48" height="48" rx="8" fill="white"/>
<g clip-path="url(#clip0_269_1616)">
<path fill-rule="evenodd" clip-rule="evenodd" d="M24.0001 12.5C21.1514 12.5015 18.396 13.5105 16.2267 15.3465C14.0575 17.1826 12.6158 19.726 12.1594 22.522C11.7031 25.318 12.2618 28.1842 13.7357 30.6082C15.2097 33.0321 17.5027 34.8558 20.2048 35.753C20.8009 35.8636 21.0255 35.4941 21.0255 35.18C21.0255 34.8658 21.0135 33.955 21.0096 32.9592C17.6713 33.6804 16.9659 31.5505 16.9659 31.5505C16.4214 30.1674 15.6345 29.8039 15.6345 29.8039C14.5456 29.065 15.716 29.0788 15.716 29.0788C16.9222 29.1637 17.556 30.3097 17.556 30.3097C18.6251 32.1333 20.3638 31.6058 21.0473 31.2976C21.1546 30.5251 21.4666 29.9995 21.8104 29.7012C19.1437 29.4008 16.3419 28.3774 16.3419 23.8054C16.3254 22.6197 16.7679 21.4731 17.5779 20.6027C17.4547 20.3024 17.0434 19.0892 17.6951 17.4414C17.6951 17.4414 18.7026 17.1214 20.9957 18.6644C22.9625 18.1296 25.0377 18.1296 27.0046 18.6644C29.2957 17.1214 30.3012 17.4414 30.3012 17.4414C30.9549 19.0853 30.5436 20.2984 30.4204 20.6027C31.233 21.4732 31.6764 22.6218 31.6584 23.8094C31.6584 28.3912 28.8506 29.4008 26.18 29.6952C26.6092 30.0667 26.9927 30.7918 26.9927 31.9061C26.9927 33.5026 26.9788 34.7868 26.9788 35.18C26.9788 35.4981 27.1954 35.8695 27.8034 35.753C30.5058 34.8557 32.7991 33.0317 34.273 30.6073C35.7469 28.183 36.3054 25.3163 35.8485 22.5201C35.3916 19.7238 33.9492 17.1804 31.7792 15.3446C29.6092 13.5089 26.8532 12.5005 24.0041 12.5H24.0001Z" fill="#191717"/>
<path d="M16.5446 29.632C16.5187 29.6913 16.4233 29.7091 16.3459 29.6676C16.2684 29.6261 16.2107 29.549 16.2386 29.4878C16.2664 29.4265 16.3598 29.4107 16.4373 29.4522C16.5148 29.4937 16.5744 29.5727 16.5446 29.632Z" fill="#191717"/>
<path d="M17.0312 30.1714C16.9901 30.192 16.943 30.1978 16.898 30.1877C16.8531 30.1776 16.8131 30.1523 16.7848 30.1161C16.7073 30.0331 16.6914 29.9185 16.751 29.8671C16.8107 29.8157 16.918 29.8395 16.9955 29.9224C17.073 30.0054 17.0908 30.12 17.0312 30.1714Z" fill="#191717"/>
<path d="M17.5044 30.857C17.4308 30.9083 17.3057 30.857 17.2361 30.7542C17.2169 30.7358 17.2016 30.7137 17.1911 30.6893C17.1807 30.6648 17.1753 30.6385 17.1753 30.612C17.1753 30.5854 17.1807 30.5591 17.1911 30.5347C17.2016 30.5102 17.2169 30.4881 17.2361 30.4697C17.3096 30.4203 17.4348 30.4697 17.5044 30.5705C17.5739 30.6712 17.5759 30.8056 17.5044 30.857Z" fill="#191717"/>
<path d="M18.1461 31.5209C18.0805 31.594 17.9474 31.5742 17.8381 31.4754C17.7288 31.3766 17.703 31.2423 17.7686 31.1712C17.8341 31.1 17.9673 31.1198 18.0805 31.2166C18.1938 31.3134 18.2157 31.4497 18.1461 31.5209Z" fill="#191717"/>
<path d="M19.0462 31.9081C19.0164 32.0009 18.8812 32.0424 18.7461 32.0029C18.611 31.9634 18.5216 31.8528 18.5474 31.7579C18.5732 31.6631 18.7104 31.6196 18.8475 31.6631C18.9846 31.7066 19.072 31.8113 19.0462 31.9081Z" fill="#191717"/>
<path d="M20.0278 31.9753C20.0278 32.0721 19.9166 32.1551 19.7735 32.1571C19.6304 32.159 19.5132 32.08 19.5132 31.9832C19.5132 31.8864 19.6245 31.8034 19.7675 31.8014C19.9106 31.7995 20.0278 31.8765 20.0278 31.9753Z" fill="#191717"/>
<path d="M20.9419 31.8232C20.9598 31.92 20.8604 32.0207 20.7174 32.0445C20.5743 32.0682 20.4491 32.0109 20.4312 31.916C20.4133 31.8212 20.5167 31.7185 20.6558 31.6928C20.7949 31.6671 20.924 31.7264 20.9419 31.8232Z" fill="#191717"/>
</g>
<rect x="0.5" y="0.5" width="47" height="47" rx="7.5" stroke="#575757" stroke-opacity="0.2"/>
<defs>
<clipPath id="clip0_269_1616">
<rect width="24" height="24" fill="white" transform="translate(12 12)"/>
</clipPath>
</defs>
</svg>
