<svg width="48" height="48" viewBox="0 0 48 48" fill="none" xmlns="http://www.w3.org/2000/svg">
<rect width="48" height="48" rx="8" fill="white"/>
<path d="M32.317 16.4921C30.7873 15.8015 29.147 15.2926 27.4319 15.0012C27.4007 14.9956 27.3695 15.0097 27.3534 15.0378C27.1424 15.407 26.9087 15.8886 26.7451 16.2672C24.9004 15.9955 23.0652 15.9955 21.2583 16.2672C21.0946 15.8802 20.8525 15.407 20.6406 15.0378C20.6245 15.0106 20.5933 14.9965 20.562 15.0012C18.8479 15.2917 17.2076 15.8005 15.6769 16.4921C15.6637 16.4977 15.6523 16.5071 15.6448 16.5193C12.5334 21.0931 11.681 25.5545 12.0992 29.9606C12.1011 29.9822 12.1134 30.0028 12.1304 30.0159C14.1832 31.4993 16.1717 32.3998 18.1233 32.9967C18.1545 33.0061 18.1876 32.9949 18.2075 32.9695C18.6691 32.3492 19.0806 31.6952 19.4335 31.0073C19.4543 30.967 19.4344 30.9192 19.3919 30.9033C18.7391 30.6597 18.1176 30.3626 17.5197 30.0253C17.4724 29.9981 17.4687 29.9316 17.5122 29.8997C17.638 29.8069 17.7638 29.7104 17.884 29.613C17.9057 29.5952 17.936 29.5914 17.9615 29.6026C21.8893 31.3672 26.1415 31.3672 30.023 29.6026C30.0485 29.5905 30.0788 29.5942 30.1015 29.612C30.2216 29.7095 30.3475 29.8069 30.4742 29.8997C30.5177 29.9316 30.5149 29.9981 30.4676 30.0253C29.8697 30.3692 29.2482 30.6597 28.5945 30.9024C28.552 30.9183 28.533 30.967 28.5538 31.0073C28.9143 31.6942 29.3258 32.3483 29.7789 32.9686C29.7978 32.9949 29.8319 33.0061 29.8631 32.9967C31.8241 32.3998 33.8126 31.4993 35.8654 30.0159C35.8834 30.0028 35.8948 29.9831 35.8967 29.9616C36.3971 24.8676 35.0585 20.4428 32.3482 16.5202C32.3416 16.5071 32.3303 16.4977 32.317 16.4921ZM20.02 27.2778C18.8375 27.2778 17.8631 26.2095 17.8631 24.8976C17.8631 23.5857 18.8186 22.5175 20.02 22.5175C21.2309 22.5175 22.1958 23.5951 22.1769 24.8976C22.1769 26.2095 21.2214 27.2778 20.02 27.2778ZM27.9947 27.2778C26.8123 27.2778 25.8379 26.2095 25.8379 24.8976C25.8379 23.5857 26.7933 22.5175 27.9947 22.5175C29.2056 22.5175 30.1705 23.5951 30.1516 24.8976C30.1516 26.2095 29.2056 27.2778 27.9947 27.2778Z" fill="#5865F2"/>
<rect x="0.5" y="0.5" width="47" height="47" rx="7.5" stroke="#575757" stroke-opacity="0.2"/>
</svg>
