<svg width="464" height="280" viewBox="0 0 464 280" fill="none" xmlns="http://www.w3.org/2000/svg">
<g clip-path="url(#clip0_269_1651)">
<path d="M155.833 160.102L199.47 156.227V5.71693L155.833 0V160.102Z" fill="url(#paint0_linear_269_1651)"/>
<path style="mix-blend-mode:multiply" d="M179.735 78.4061L195 78.5024V152.116L179.735 153.504V78.4061Z" fill="url(#paint1_linear_269_1651)"/>
<path style="mix-blend-mode:multiply" d="M175.288 78.378V153.91L160.141 155.288V78.2838L175.288 78.378Z" fill="url(#paint2_linear_269_1651)"/>
<path style="mix-blend-mode:multiply" d="M160.141 73.5116V5.07101L195 9.71276V73.6501L160.141 73.5116Z" fill="url(#paint3_linear_269_1651)"/>
<path d="M160.141 18.1277V5.07101L195 9.71276L160.141 18.1277Z" fill="#D9DBDF"/>
<path d="M155.833 160.088L136.353 156.568V10.3165L155.833 0V160.088Z" fill="#D9DBDF"/>
<path style="mix-blend-mode:multiply" d="M115.364 229.921L51.6797 260.995L0 256.363L91.8199 224.31L115.364 229.921Z" fill="url(#paint4_linear_269_1651)"/>
<path d="M104.075 217.37C95.941 217.37 89.3499 220.78 89.3499 224.982C89.3499 229.184 95.945 232.605 104.075 232.605C112.205 232.605 118.8 229.195 118.8 224.982C118.8 220.77 112.207 217.37 104.075 217.37Z" fill="#C4C8CD"/>
<path d="M122.417 201.541H85.7363L89.3716 225.151C89.3716 226.176 95.9548 227.006 104.079 227.006C112.203 227.006 118.786 226.176 118.786 225.151L122.417 201.541Z" fill="#C4C8CD"/>
<path style="mix-blend-mode:multiply" d="M91.7459 214.792C94.4479 211.56 97.7554 214.635 101.281 213.951C105.004 213.231 108.787 212.678 112.091 215.197C111.491 214.748 116.52 221.239 120.457 214.274L122.417 201.541H85.7363L88.5882 219.107C89.7573 217.345 91.2862 215.34 91.7459 214.792Z" fill="url(#paint5_linear_269_1651)"/>
<path d="M125.247 196.456L121.802 206.01C121.802 203.874 113.862 202.142 104.073 202.142C94.2841 202.142 86.352 203.874 86.352 206.01L82.9045 196.456H125.247Z" fill="url(#paint6_linear_269_1651)"/>
<path d="M104.075 199.436C94.2421 199.436 86.27 202.283 86.27 205.793C86.27 209.304 94.2421 212.152 104.075 212.152C113.908 212.152 121.88 209.306 121.88 205.793C121.88 202.281 113.916 199.436 104.075 199.436Z" fill="url(#paint7_linear_269_1651)"/>
<path d="M104.075 203.591C115.767 203.591 125.245 200.396 125.245 196.456C125.245 192.515 115.767 189.32 104.075 189.32C92.3828 189.32 82.9045 192.515 82.9045 196.456C82.9045 200.396 92.3828 203.591 104.075 203.591Z" fill="url(#paint8_linear_269_1651)"/>
<path d="M104.075 190.965C93.4507 190.965 84.8391 193.419 84.8391 196.448C84.8391 199.477 93.4507 201.928 104.075 201.928C114.699 201.928 123.309 199.483 123.309 196.456C123.309 193.429 114.697 190.965 104.075 190.965Z" fill="#697182"/>
<path d="M111.853 161.905C110.14 165.207 106.275 195.362 106.275 195.362L107.72 196.081C109.293 175.161 110.292 169.682 112.117 162.124C112.147 162.006 113.564 158.602 111.853 161.905Z" fill="#3C4456"/>
<path d="M114.593 112.2C104.237 138.101 111.857 162.238 111.857 162.238C123.554 157.552 124.602 143.423 124.602 143.423C111.683 150.738 125.237 138.743 125.237 138.743C130.663 119.247 114.593 112.2 114.593 112.2Z" fill="#14A800"/>
<path d="M106.635 141.651C106.635 141.651 119.026 153.765 106.669 145.537C106.669 145.537 105.318 158.289 111.865 162.238C111.865 162.238 122.683 138.45 114.205 111.869C114.197 111.869 102.616 121.815 106.635 141.651Z" fill="#003C3C"/>
<path d="M123.708 155.418C123.708 155.418 121.71 157.958 125.451 160.999C129.192 164.04 121.606 162.792 121.15 157.352C120.695 151.912 113.776 159.179 117.629 166.816C121.194 173.879 109.749 182.021 105.078 196.865C105.72 196.623 106.376 196.422 107.043 196.263C109.605 189.499 114.679 177.608 121.6 168.705C131.828 155.536 150.263 155.823 150.263 155.823C150.263 155.823 134.31 149.017 123.708 155.418Z" fill="#003C3C"/>
<path d="M105.234 187.858C105.566 189.353 106.963 193.274 107.974 196.046C108.262 195.994 108.554 195.96 108.843 195.922C108 193.583 106.883 191.443 106.367 189.597C102.124 174.368 108.736 168.577 110.696 157.213C84.8632 183.782 104.704 185.449 105.234 187.858Z" fill="#003C3C"/>
<path d="M128.021 164.345C127.022 167.654 129.244 171.299 126.896 171.646C124.548 171.993 128.84 164.892 125.879 165.36C122.917 165.827 120.647 169.606 120.647 169.606C120.794 182.085 119.264 171.074 119.264 171.074C114.445 180.071 118.1 184.607 118.1 184.607C112.878 187.523 108.983 192.55 106.585 196.369C106.975 196.263 107.368 196.169 107.768 196.087C110.41 191.698 115.135 185.938 122.861 182.745C136.485 177.112 141.961 164.491 141.961 164.491C141.961 164.491 129.01 161.037 128.021 164.345Z" fill="#14A800"/>
<path d="M127.523 172.711C118.232 174.828 118.1 184.609 118.1 184.609C112.617 187.848 108.809 192.709 106.509 196.391C106.925 196.273 107.344 196.173 107.772 196.089C110.414 191.7 115.139 185.94 122.865 182.747C136.489 177.114 141.965 164.493 141.965 164.493C141.965 164.493 136.813 170.591 127.523 172.711Z" fill="#003C3C"/>
<path d="M99.692 170.992C100.364 178.428 105.616 191.336 107.652 196.115C108.326 195.976 109.007 195.88 109.693 195.828C107.628 192.436 101.699 182.015 100.192 171.769C98.357 159.302 106.525 153.591 95.3952 138.392C95.3952 138.392 85.0828 155.998 93.0669 135.479C93.0669 135.479 88.3324 131.73 86.6377 129.409C86.6377 129.409 86.6637 132.177 84.4633 134.873C84.4633 134.873 85.7104 124.984 73.3595 126.669C73.3595 126.669 67.4579 135.654 78.2459 142.945C78.2459 142.945 83.9317 146.171 85.9042 148.405C85.9042 148.405 80.6381 145.523 76.9249 147.3C76.9249 147.3 78.4917 155.242 82.0951 155.98C85.6984 156.718 86.0681 157.115 86.0681 157.115C86.0681 157.115 86.5458 158.993 88.938 158.752C91.3302 158.511 91.3982 160.357 91.3982 160.357C91.3982 160.357 87.3492 158.61 84.2255 159.755C84.2255 159.755 84.0956 164.631 89.7534 165.705C95.4112 166.778 98.8546 161.743 99.692 170.992Z" fill="#14A800"/>
<path d="M99.69 170.992C100.363 178.428 105.616 191.334 107.652 196.115C108.326 195.976 109.007 195.88 109.693 195.828C107.628 192.438 101.699 182.015 100.194 171.771C99.722 168.573 99.9098 165.823 100.26 163.241C101.059 157.392 102.686 152.419 99.4262 145.142C98.5109 143.096 97.2078 140.873 95.3952 138.394C95.3952 138.394 85.0828 156 93.0669 135.481C93.0669 135.481 88.3324 131.734 86.6397 129.413C86.6397 129.413 86.6637 132.181 84.4633 134.877C84.4633 134.877 85.7084 124.988 73.3595 126.675C73.3595 126.675 72.4122 134.245 83.2002 141.537C83.2002 141.537 99.5561 161.336 96.4284 162.479C96.4284 162.479 84.0956 164.623 89.7534 165.689C95.4112 166.754 98.8546 161.741 99.69 170.992Z" fill="#003C3C"/>
<path d="M97.7995 155.992C97.4278 160.387 100.26 163.241 100.26 163.241C101.059 157.392 102.686 152.419 99.4263 145.142C100.757 151.593 98.1772 151.593 97.7995 155.992Z" fill="#14A800"/>
<path d="M103.885 197.384C102.618 193.29 99.6301 185.599 93.9523 180.723C93.9523 180.723 98.433 177.008 95.4911 167.229C95.4911 167.229 91.8119 177.714 94.4259 165.516C94.4259 165.516 92.951 161.36 90.1391 160.301C87.3272 159.241 90.1391 167.067 87.8968 166.258C85.6544 165.45 88.5543 162.319 88.2385 158.878C87.9228 155.438 74.5447 156.263 74.5447 156.263C74.5447 156.263 77.4165 169.72 89.6535 177.955C98.7248 184.061 101.902 193.435 102.942 197.88C103.251 197.697 103.563 197.531 103.885 197.384Z" fill="#14A800"/>
<path d="M103.923 197.36C102.742 193.411 99.8919 186.077 93.9503 180.711C93.9503 180.711 95.749 171.101 87.0714 167.173C78.3938 163.245 74.5447 156.263 74.5447 156.263C74.5447 156.263 77.4165 169.72 89.6535 177.955C98.7248 184.061 101.902 193.435 102.942 197.88C103.265 197.689 103.591 197.519 103.923 197.36Z" fill="#003C3C"/>
<path d="M103.211 196.209C97.7155 189.762 88.7941 187.597 89.7334 183.838C90.7227 179.877 85.1868 177.516 85.8822 180.027C86.5777 182.538 82.163 184.119 83.9057 182.248C85.6484 180.376 83.9717 179.495 83.9717 179.495C76.3333 178.019 67.7957 183.216 67.7957 183.216C67.7957 183.216 79.0233 180.631 87.6429 185.222C94.1341 188.675 99.8899 194.101 102.336 196.57C102.62 196.442 102.924 196.325 103.211 196.209Z" fill="#003C3C"/>
<path d="M301.822 111.364H336.487V5.54242L301.822 6.58551V111.364Z" fill="url(#paint9_linear_269_1651)"/>
<path d="M261.912 111.364H295.685V6.91446L261.912 7.93147V111.364Z" fill="url(#paint10_linear_269_1651)"/>
<path d="M390.746 108.263H425.411V2.44122L390.746 3.48431V108.263Z" fill="url(#paint11_linear_269_1651)"/>
<path d="M350.834 108.263H384.609V3.81329L350.834 4.8303V108.263Z" fill="url(#paint12_linear_269_1651)"/>
<path d="M139.697 139.97L151.332 143.228V277.469L139.697 276.98V139.97Z" fill="url(#paint13_linear_269_1651)"/>
<path d="M379.862 214.754L392.891 216.537V273.877L379.862 273.608V214.754Z" fill="url(#paint14_linear_269_1651)"/>
<path d="M431.898 176.226L392.891 216.537V273.877L431.898 235.08V176.226Z" fill="url(#paint15_linear_269_1651)"/>
<path d="M240.915 112.948L151.332 143.228V277.469L240.915 249.96V112.948Z" fill="url(#paint16_linear_269_1651)"/>
<path d="M309.391 202.199C309.391 202.199 311.163 231.084 296.466 257.964C281.769 284.843 255.662 272.166 255.766 260.973C255.87 249.78 261.516 192.771 261.516 192.771L309.391 202.199Z" fill="url(#paint17_linear_269_1651)"/>
<path d="M463.996 148.754L233.905 96.3132L123.253 130.462L399.798 221.329L463.996 148.754Z" fill="url(#paint18_linear_269_1651)"/>
<path d="M399.798 232.266L123.237 137.198L123.253 130.462L399.798 221.329V232.266Z" fill="url(#paint19_linear_269_1651)"/>
<path d="M399.798 232.266L464 155.474L463.994 148.74L399.798 221.329V232.266Z" fill="url(#paint20_linear_269_1651)"/>
<path style="mix-blend-mode:multiply" d="M419.331 156.168L376.993 204.215L258.642 166.252L308.136 130.922L419.331 156.168Z" fill="url(#paint21_linear_269_1651)"/>
<path style="mix-blend-mode:multiply" d="M304.814 127.558L248.228 167.418L154.837 136.584L215.202 108.02L304.814 127.558Z" fill="url(#paint22_linear_269_1651)"/>
<path d="M282.503 129.247L234.804 118.483L223.165 124.719L273.018 138.388L282.503 129.247Z" fill="#697182"/>
<path d="M273.05 140.189L223.189 126.103L223.165 124.719L273.018 138.388L273.05 140.189Z" fill="#414A5C"/>
<path d="M282.503 129.251L273.018 138.388L273.05 140.189L282.529 130.771L282.503 129.251Z" fill="#202735"/>
<path d="M241.925 104.471L271.335 109.241C271.551 109.268 271.749 109.375 271.89 109.541C272.03 109.708 272.102 109.922 272.092 110.14L271.059 129.784L267.568 133.309L241.187 105.147C241.187 105.053 241.207 104.96 241.245 104.874C241.283 104.787 241.339 104.71 241.408 104.647C241.477 104.583 241.559 104.535 241.648 104.504C241.737 104.474 241.831 104.463 241.925 104.471Z" fill="#202735"/>
<path d="M238.727 103.667L267.957 108.401C268.172 108.427 268.369 108.534 268.508 108.7C268.648 108.866 268.719 109.079 268.709 109.296L267.568 133.305L237.516 125.339L238.004 104.339C238.004 104.246 238.023 104.154 238.06 104.069C238.097 103.984 238.152 103.908 238.22 103.845C238.287 103.782 238.368 103.734 238.455 103.703C238.542 103.672 238.635 103.66 238.727 103.667Z" fill="#414A5C"/>
<g style="mix-blend-mode:multiply">
<path d="M238.727 103.667L267.957 108.401C268.172 108.427 268.369 108.534 268.508 108.7C268.648 108.866 268.719 109.079 268.709 109.296L267.621 129.459L237.572 121.494L238.003 104.339C238.004 104.246 238.023 104.154 238.06 104.069C238.097 103.984 238.152 103.908 238.22 103.845C238.287 103.782 238.367 103.734 238.455 103.703C238.542 103.672 238.635 103.66 238.727 103.667Z" fill="url(#paint23_linear_269_1651)"/>
</g>
<path d="M307.846 59.2113C307.446 74.9339 306.217 122.186 306.065 125.373C305.883 129.184 301.758 129.345 301.758 129.345L304.041 53.8815C307.262 54.1604 307.922 56.2846 307.846 59.2113Z" fill="#414A5C"/>
<path d="M217.754 46.2509L303.449 53.8294C304.878 53.9557 305.859 54.9928 305.819 56.3468L303.687 128.629L215.202 108.02L215.772 48.303C215.782 47.1737 216.757 46.1627 217.754 46.2509Z" fill="#697182"/>
<path d="M219.237 49.6751L300.177 57.4481C301.516 57.5765 302.432 58.5574 302.396 59.8311L300.439 127.875L216.779 108.387L217.341 51.6088C217.353 50.5356 218.282 49.5828 219.237 49.6751Z" fill="black"/>
<g style="mix-blend-mode:multiply">
<path d="M259.324 91.4708C250.352 83.5594 248.932 71.6943 238.255 65.7226C230.098 61.1631 223.54 69.8528 215.604 65.9232L215.772 48.307C215.772 47.1777 216.757 46.1667 217.755 46.255L303.449 53.8334C304.878 53.9598 305.859 54.9968 305.819 56.3508L304.948 85.8702C304.754 85.9986 285.968 114.966 259.324 91.4708Z" fill="url(#paint24_linear_269_1651)"/>
</g>
<path d="M303.021 131.04C302.918 131.313 302.719 131.538 302.46 131.671C302.202 131.805 301.904 131.838 301.622 131.764L215.175 111.023C215.122 111.009 215.074 110.984 215.031 110.951C214.989 110.917 214.954 110.876 214.928 110.828C214.902 110.781 214.886 110.729 214.88 110.675C214.875 110.621 214.881 110.567 214.897 110.515L215.21 108.02L303.775 128.649L303.021 131.04Z" fill="#414A5C"/>
<path d="M220.349 54.5695L298.798 62.9744L298.834 61.5662L220.383 53.6488L220.349 54.5695Z" fill="#414A5C"/>
<path d="M220.289 56.1522L223.738 56.5574L223.772 55.6146L220.323 55.2295L220.289 56.1522Z" fill="#414A5C"/>
<path d="M264.986 61.4158L298.735 65.3916L298.771 63.9814L265.024 60.2162L264.986 61.4158Z" fill="#414A5C"/>
<path d="M230.247 57.3237L258.606 60.6636L258.642 59.5042L230.283 56.3408L230.247 57.3237Z" fill="#414A5C"/>
<path d="M280.144 65.4297L298.673 67.8087L298.709 66.4006L280.18 64.1359L280.144 65.4297Z" fill="#414A5C"/>
<path d="M220.229 57.7329L236.872 59.8713L236.908 58.8462L220.265 56.8122L220.229 57.7329Z" fill="#414A5C"/>
<path d="M242.986 60.6556L269.808 64.1018L269.844 62.8721L243.022 59.5924L242.986 60.6556Z" fill="#414A5C"/>
<path d="M219.905 62.4228L298.453 74.4905L298.485 73.0784L219.951 61.1751L219.905 62.4228Z" fill="#414A5C"/>
<path d="M219.825 64.5651L224.424 65.2873L224.47 64.0295L219.871 63.3154L219.825 64.5651Z" fill="#414A5C"/>
<path d="M270.236 72.4886L298.395 76.9157L298.429 75.5015L270.276 71.1346L270.236 72.4886Z" fill="#414A5C"/>
<path d="M232.731 66.5932L264.096 71.5238L264.136 70.1838L232.775 65.3194L232.731 66.5932Z" fill="#414A5C"/>
<path d="M283.706 76.9899L298.339 79.3429L298.373 77.9287L283.742 75.6058L283.706 76.9899Z" fill="#414A5C"/>
<path d="M219.745 66.7095L240.722 70.0815L240.764 68.7876L219.791 65.4598L219.745 66.7095Z" fill="#414A5C"/>
<path d="M247.712 71.2048L274.68 75.5397L274.718 74.1736L247.754 69.897L247.712 71.2048Z" fill="#414A5C"/>
<path d="M219.649 69.2691L298.271 82.2415L298.303 80.8253L219.695 68.0194L219.649 69.2691Z" fill="#414A5C"/>
<path d="M219.567 71.4174L224.17 72.1917L224.218 70.932L219.615 70.1657L219.567 71.4174Z" fill="#414A5C"/>
<path d="M270.026 79.9226L298.215 84.6727L298.247 83.2565L270.064 78.5646L270.026 79.9226Z" fill="#414A5C"/>
<path d="M232.486 73.5939L263.878 78.8856L263.918 77.5416L232.53 72.3161L232.486 73.5939Z" fill="#414A5C"/>
<path d="M283.51 84.5864L298.157 87.1059L298.191 85.6877L283.546 83.1983L283.51 84.5864Z" fill="#414A5C"/>
<path d="M219.487 73.5658L240.482 77.1805L240.526 75.8827L219.533 72.3141L219.487 73.5658Z" fill="#414A5C"/>
<path d="M247.48 78.384L274.472 83.0298L274.51 81.6617L247.522 77.0721L247.48 78.384Z" fill="#414A5C"/>
<path d="M219.397 75.9589L298.095 89.8179L298.129 88.3977L219.445 74.7072L219.397 75.9589Z" fill="#414A5C"/>
<path d="M219.317 78.1133L223.924 78.9397L223.97 77.676L219.363 76.8575L219.317 78.1133Z" fill="#414A5C"/>
<path d="M269.82 87.1861L298.037 92.2551L298.071 90.8349L269.858 85.8241L269.82 87.1861Z" fill="#414A5C"/>
<path d="M232.244 80.4341L263.667 86.0809L263.707 84.7329L232.29 79.1544L232.244 80.4341Z" fill="#414A5C"/>
<path d="M283.316 92.0084L297.981 94.6944L298.013 93.2741L283.354 90.6183L283.316 92.0084Z" fill="#414A5C"/>
<path d="M219.235 80.2656L240.248 84.117L240.292 82.8172L219.283 79.0119L219.235 80.2656Z" fill="#414A5C"/>
<path d="M247.253 85.4009L274.273 90.3515L274.309 88.9795L247.295 84.085L247.253 85.4009Z" fill="#414A5C"/>
<path d="M219.156 82.422L223.764 83.2826L223.81 82.0168L219.201 81.1663L219.156 82.422Z" fill="#414A5C"/>
<path d="M269.688 91.862L297.923 97.1376L297.957 95.7134L269.726 90.4979L269.688 91.862Z" fill="#414A5C"/>
<path d="M232.09 84.8392L263.531 90.7125L263.57 89.3625L232.136 83.5554L232.09 84.8392Z" fill="#414A5C"/>
<path d="M283.192 96.7865L297.867 99.5808L297.899 98.1566L283.228 95.3944L283.192 96.7865Z" fill="#414A5C"/>
<path d="M219.073 84.5804L240.098 88.5823L240.142 87.2804L219.121 83.3227L219.073 84.5804Z" fill="#414A5C"/>
<path d="M247.107 89.9162L274.141 95.0635L274.179 93.6894L247.149 88.6003L247.107 89.9162Z" fill="#414A5C"/>
<path d="M218.984 86.9836L297.803 102.305L297.837 100.879L219.032 85.7258L218.984 86.9836Z" fill="#414A5C"/>
<path d="M218.904 89.1439L223.516 90.0567L223.562 88.7889L218.95 87.8842L218.904 89.1439Z" fill="#414A5C"/>
<path d="M269.48 99.1576L297.747 104.752L297.779 103.326L269.518 97.7896L269.48 99.1576Z" fill="#414A5C"/>
<path d="M231.848 91.7075L263.317 97.9379L263.357 96.5839L231.894 90.4197L231.848 91.7075Z" fill="#414A5C"/>
<path d="M282.998 104.243L297.689 107.203L297.721 105.775L283.036 102.846L282.998 104.243Z" fill="#414A5C"/>
<path d="M218.822 91.3063L239.862 95.5489L239.906 94.243L218.87 90.0466L218.822 91.3063Z" fill="#414A5C"/>
<path d="M246.879 96.9611L273.939 102.417L273.977 101.039L246.921 95.6412L246.879 96.9611Z" fill="#414A5C"/>
<path d="M218.726 93.89L297.621 110.134L297.653 108.704L218.772 92.6282L218.726 93.89Z" fill="#414A5C"/>
<path d="M218.644 96.0564L223.26 97.0233L223.306 95.7515L218.692 94.7947L218.644 96.0564Z" fill="#414A5C"/>
<path d="M269.266 106.662L297.563 112.589L297.597 111.157L269.306 105.29L269.266 106.662Z" fill="#414A5C"/>
<path d="M231.6 98.7704L263.099 105.37L263.139 104.012L231.644 97.4806L231.6 98.7704Z" fill="#414A5C"/>
<path d="M282.8 111.913L297.505 115.047L297.539 113.614L282.836 110.511L282.8 111.913Z" fill="#414A5C"/>
<path d="M218.564 98.2248L239.622 102.712L239.666 101.404L218.612 96.9611L218.564 98.2248Z" fill="#414A5C"/>
<path d="M246.643 104.209L273.729 109.98L273.769 108.6L246.685 102.885L246.643 104.209Z" fill="#414A5C"/>
<path d="M218.472 100.64L297.442 117.785L297.476 116.35L218.52 99.3762L218.472 100.64Z" fill="#414A5C"/>
<path d="M218.392 102.812L223.011 103.831L223.059 102.556L218.44 101.547L218.392 102.812Z" fill="#414A5C"/>
<path d="M269.059 113.995L297.386 120.246L297.42 118.812L269.099 112.619L269.059 113.995Z" fill="#414A5C"/>
<path d="M231.356 105.673L262.883 112.631L262.923 111.271L231.402 104.381L231.356 105.673Z" fill="#414A5C"/>
<path d="M282.606 119.41L297.328 122.711L297.362 121.275L282.642 118.003L282.606 119.41Z" fill="#414A5C"/>
<path d="M218.31 104.985L239.386 109.713L239.43 108.401L218.358 103.719L218.31 104.985Z" fill="#414A5C"/>
<path d="M246.413 111.289L273.525 117.371L273.565 115.987L246.455 109.964L246.413 111.289Z" fill="#414A5C"/>
<path d="M391.016 158.391L332.308 145.092L317.79 152.798L379.099 169.688L391.016 158.391Z" fill="#697182"/>
<path d="M379.099 171.911L317.79 154.507V152.798L379.099 169.688V171.911Z" fill="#414A5C"/>
<path d="M391.016 158.397L379.099 169.688V171.911L391.016 160.275V158.397Z" fill="#202735"/>
<path d="M341.405 127.778L377.646 133.674C377.911 133.705 378.155 133.838 378.325 134.044C378.496 134.251 378.58 134.516 378.561 134.783L376.865 159.055L372.468 163.41L340.492 128.611C340.512 128.113 340.961 127.704 341.405 127.778Z" fill="#202735"/>
<path d="M337.474 126.785L373.491 132.633C373.755 132.664 373.997 132.797 374.166 133.003C374.335 133.208 374.419 133.472 374.4 133.738L372.474 163.406L335.501 153.563L336.554 127.614C336.584 127.122 337.032 126.713 337.474 126.785Z" fill="#414A5C"/>
<g style="mix-blend-mode:multiply">
<path d="M337.474 126.785L373.491 132.633C373.755 132.664 373.997 132.797 374.166 133.003C374.335 133.208 374.419 133.472 374.4 133.738L372.624 158.654L335.663 148.811L336.565 127.614C336.585 127.122 337.032 126.713 337.474 126.785Z" fill="url(#paint25_linear_269_1651)"/>
</g>
<path d="M423.836 71.8507C422.996 91.2782 420.47 149.665 420.214 153.607C419.907 158.317 414.807 158.513 414.807 158.513L419.247 65.2652C423.224 65.6182 423.992 68.234 423.836 71.8507Z" fill="#414A5C"/>
<path d="M312.792 55.8373L418.514 65.201C420.278 65.3575 421.468 66.6393 421.388 68.3122L417.201 157.629L308.307 132.153L310.298 58.3728C310.336 56.9787 311.569 55.729 312.792 55.8373Z" fill="#697182"/>
<path d="M314.547 60.0679L414.407 69.6723C416.058 69.8308 417.169 71.0444 417.097 72.619L413.214 156.696L310.252 132.625L312.169 62.4569C312.203 61.133 313.368 59.9535 314.547 60.0679Z" fill="black"/>
<g style="mix-blend-mode:multiply">
<path d="M363.185 111.709C352.271 101.934 350.778 87.2704 337.704 79.8925C327.723 74.2578 319.435 84.9956 309.712 80.1393L310.298 58.3728C310.336 56.9787 311.563 55.729 312.792 55.8373L418.514 65.201C420.278 65.3575 421.468 66.6393 421.388 68.3122L419.689 104.788C419.441 104.953 395.603 140.747 363.185 111.709Z" fill="url(#paint26_linear_269_1651)"/>
</g>
<path d="M416.331 160.607C416.11 161.281 415.332 161.683 414.579 161.504L308.204 135.874C308.14 135.855 308.081 135.824 308.03 135.782C307.979 135.741 307.937 135.689 307.906 135.63C307.875 135.572 307.856 135.508 307.849 135.442C307.843 135.376 307.85 135.31 307.87 135.246L308.311 132.161L417.307 157.653L416.331 160.607Z" fill="#414A5C"/>
<path d="M315.82 66.1177L412.574 76.5005L412.648 74.7613L315.882 64.9803L315.82 66.1177Z" fill="#414A5C"/>
<path d="M315.712 68.0715L319.965 68.573L320.029 67.4075L315.774 66.9321L315.712 68.0715Z" fill="#414A5C"/>
<path d="M370.829 74.5748L412.446 79.4873L412.52 77.7462L370.899 73.0944L370.829 74.5748Z" fill="#414A5C"/>
<path d="M327.991 69.5198L362.961 73.648L363.031 72.2158L328.057 68.3062L327.991 69.5198Z" fill="#414A5C"/>
<path d="M389.471 79.5355L412.316 82.4762L412.39 80.7351L389.545 77.9368L389.471 79.5355Z" fill="#414A5C"/>
<path d="M315.604 70.0253L336.123 72.6671L336.189 71.4014L315.666 68.8859L315.604 70.0253Z" fill="#414A5C"/>
<path d="M343.661 73.638L376.729 77.8946L376.801 76.3761L343.727 72.3241L343.661 73.638Z" fill="#414A5C"/>
<path d="M315.102 75.8205L411.901 90.7326L411.971 88.9875L315.186 74.2799L315.102 75.8205Z" fill="#414A5C"/>
<path d="M314.957 78.4663L320.624 79.361L320.708 77.8064L315.04 76.9238L314.957 78.4663Z" fill="#414A5C"/>
<path d="M377.078 88.2593L411.779 93.7275L411.849 91.9823L377.154 86.5864L377.078 88.2593Z" fill="#414A5C"/>
<path d="M330.863 80.9737L369.512 87.0657L369.59 85.4088L330.945 79.397L330.863 80.9737Z" fill="#414A5C"/>
<path d="M393.626 93.8198L411.657 96.7264L411.727 94.9792L393.7 92.1107L393.626 93.8198Z" fill="#414A5C"/>
<path d="M314.813 81.1162L340.659 85.2825L340.741 83.6838L314.897 79.5716L314.813 81.1162Z" fill="#414A5C"/>
<path d="M349.275 86.6706L382.503 92.0264L382.578 90.3414L349.355 85.0558L349.275 86.6706Z" fill="#414A5C"/>
<path d="M314.639 84.2815L411.509 100.309L411.581 98.5598L314.723 82.7349L314.639 84.2815Z" fill="#414A5C"/>
<path d="M314.493 86.9334L320.163 87.8922L320.247 86.3336L314.579 85.3888L314.493 86.9334Z" fill="#414A5C"/>
<path d="M376.657 97.4425L411.387 103.314L411.459 101.563L376.735 95.7655L376.657 97.4425Z" fill="#414A5C"/>
<path d="M330.407 89.6234L369.084 96.1627L369.162 94.5018L330.489 88.0447L330.407 89.6234Z" fill="#414A5C"/>
<path d="M393.219 103.206L411.265 106.321L411.337 104.568L393.292 101.49L393.219 103.206Z" fill="#414A5C"/>
<path d="M314.347 89.5892L340.212 94.0545L340.294 92.4517L314.431 88.0427L314.347 89.5892Z" fill="#414A5C"/>
<path d="M354.557 94.8849L348.913 93.9221L348.833 95.5429L354.557 96.5318V94.8849Z" fill="#414A5C"/>
<path d="M356.64 95.24V96.8909L363.009 97.9901V96.3272L356.64 95.24Z" fill="#414A5C"/>
<path d="M365.335 96.7244V98.3913L382.087 101.284L382.163 99.5929L365.335 96.7244Z" fill="#414A5C"/>
<path d="M314.185 92.548L411.129 109.671L411.201 107.916L314.269 90.9974L314.185 92.548Z" fill="#414A5C"/>
<path d="M314.039 95.2079L319.713 96.2289L319.797 94.6683L314.125 93.6573L314.039 95.2079Z" fill="#414A5C"/>
<path d="M376.247 106.419L411.005 112.684L411.077 110.926L376.325 104.736L376.247 106.419Z" fill="#414A5C"/>
<path d="M329.963 98.0763L368.669 105.053L368.747 103.386L330.045 96.4937L329.963 98.0763Z" fill="#414A5C"/>
<path d="M392.821 112.379L410.883 115.697L410.955 113.941L392.895 110.66L392.821 112.379Z" fill="#414A5C"/>
<path d="M313.893 97.8677L339.772 102.626L339.856 101.021L313.977 96.3171L313.893 97.8677Z" fill="#414A5C"/>
<path d="M358.558 104.419L348.482 102.588L348.4 104.213L358.558 106.08V104.419Z" fill="#414A5C"/>
<path d="M367.867 106.11V107.791L381.681 110.329L381.757 108.636L367.867 106.11Z" fill="#414A5C"/>
<path d="M313.745 100.532L319.421 101.597L319.507 100.032L313.831 98.9811L313.745 100.532Z" fill="#414A5C"/>
<path d="M375.983 112.198L410.759 118.715L410.833 116.956L376.059 110.513L375.983 112.198Z" fill="#414A5C"/>
<path d="M329.678 103.518L368.401 110.776L368.479 109.107L329.76 101.932L329.678 103.518Z" fill="#414A5C"/>
<path d="M392.567 118.282L410.638 121.736L410.71 119.975L392.641 116.561L392.567 118.282Z" fill="#414A5C"/>
<path d="M313.599 103.199L339.49 108.144L339.574 106.535L313.685 101.645L313.599 103.199Z" fill="#414A5C"/>
<path d="M348.122 109.793L381.417 116.154L381.495 114.457L348.204 108.166L348.122 109.793Z" fill="#414A5C"/>
<path d="M313.438 106.168L410.502 125.1L410.572 123.339L313.522 104.614L313.438 106.168Z" fill="#414A5C"/>
<path d="M313.292 108.838L318.97 109.968L319.055 108.399L313.376 107.282L313.292 108.838Z" fill="#414A5C"/>
<path d="M375.572 121.211L410.378 128.125L410.45 126.362L375.647 119.522L375.572 121.211Z" fill="#414A5C"/>
<path d="M329.232 112.006L367.981 119.704L368.059 118.031L329.314 110.415L329.232 112.006Z" fill="#414A5C"/>
<path d="M392.165 127.495L410.254 131.154L410.326 129.389L392.241 125.77L392.165 127.495Z" fill="#414A5C"/>
<path d="M313.144 111.51L339.053 116.752L339.135 115.139L313.23 109.954L313.144 111.51Z" fill="#414A5C"/>
<path d="M367.867 120.89V122.581L381.01 125.239L381.086 123.536L367.867 120.89Z" fill="#414A5C"/>
<path d="M358.558 119.026L347.77 116.868L347.688 118.499L358.558 120.697V119.026Z" fill="#414A5C"/>
<path d="M312.968 114.704L410.106 134.773L410.178 133.008L313.054 113.145L312.968 114.704Z" fill="#414A5C"/>
<path d="M312.822 117.382L318.504 118.575L318.59 117.002L312.908 115.821L312.822 117.382Z" fill="#414A5C"/>
<path d="M375.146 130.484L409.984 137.808L410.056 136.039L375.224 128.789L375.146 130.484Z" fill="#414A5C"/>
<path d="M328.772 120.733L367.551 128.888L367.629 127.209L328.856 119.139L328.772 120.733Z" fill="#414A5C"/>
<path d="M391.756 136.974L409.86 140.845L409.932 139.076L391.83 135.242L391.756 136.974Z" fill="#414A5C"/>
<path d="M312.674 120.059L338.599 125.604L338.681 123.987L312.76 118.499L312.674 120.059Z" fill="#414A5C"/>
<path d="M347.243 127.453L380.59 134.584L380.666 132.877L347.324 125.816L347.243 127.453Z" fill="#414A5C"/>
<path d="M312.51 123.044L409.722 144.229L409.794 142.456L312.596 121.482L312.51 123.044Z" fill="#414A5C"/>
<path d="M312.365 125.726L318.05 126.986L318.136 125.411L312.45 124.164L312.365 125.726Z" fill="#414A5C"/>
<path d="M374.732 139.545L409.598 147.27L409.67 145.497L374.808 137.848L374.732 139.545Z" fill="#414A5C"/>
<path d="M328.325 129.263L367.13 137.862L367.208 136.179L328.409 127.664L328.325 129.263Z" fill="#414A5C"/>
<path d="M391.354 146.235L409.474 150.315L409.546 148.542L391.43 144.5L391.354 146.235Z" fill="#414A5C"/>
<path d="M312.217 128.412L338.157 134.253L338.239 132.635L312.302 126.848L312.217 128.412Z" fill="#414A5C"/>
<path d="M346.807 136.203L380.178 143.717L380.256 142.006L346.887 134.562L346.807 136.203Z" fill="#414A5C"/>
<path d="M280.18 158.136C279.771 156.648 279.465 155.133 279.263 153.603C279.007 151.396 279.631 146.66 279.385 143.467C279.139 140.273 281.341 139.379 278.823 137.292C276.305 135.206 276.425 138.183 274.996 138.45C274.996 138.45 274.702 139.387 275.312 140.121C275.312 140.121 274.512 138.917 272.99 136.636C271.467 134.356 269.208 136.065 269.208 136.065C269.208 136.065 267.196 134.225 265.531 135.599C263.866 136.973 263.954 132.39 261.506 132.354C259.058 132.318 259.519 134.328 255.886 134.779C252.253 135.23 253.3 150.865 261.344 155.5C269.388 160.136 280.18 158.136 280.18 158.136Z" fill="#F17E59"/>
<path d="M138.737 223.831L208.232 208.226C208.517 208.078 208.832 207.998 209.153 207.99C209.474 207.982 209.792 208.048 210.084 208.182L278.769 229.078C281.567 230.482 284.641 240.544 275.937 243.673L203.681 265.739C203.4 265.895 203.088 265.986 202.768 266.004C202.448 266.023 202.127 265.969 201.83 265.847L138.171 237.734C132.44 235.395 134.65 224.92 138.737 223.831Z" fill="url(#paint27_linear_269_1651)"/>
<path d="M140.678 223.072L208.369 200.742C208.655 200.595 208.971 200.514 209.292 200.508C209.614 200.501 209.933 200.568 210.224 200.704L277.846 228.362C280.644 229.766 281.735 236.699 276.115 238.895L203.817 260.728C203.535 260.883 203.223 260.972 202.903 260.989C202.582 261.006 202.262 260.95 201.966 260.826L138.03 232.342C134.762 230.87 134.934 224.442 140.678 223.072Z" fill="url(#paint28_linear_269_1651)"/>
<path d="M151.244 182.97C156.204 172.216 157.979 155.111 157.979 155.111L208.178 174.33C208.475 174.531 309.391 194.189 309.391 202.213C309.391 221.014 246.194 245.908 194.502 245.908C188.706 245.908 165.659 245.507 151.384 231.391C137.554 217.721 146.292 193.724 151.244 182.97Z" fill="#0078EE"/>
<path style="mix-blend-mode:multiply" d="M151.244 182.97C156.204 172.216 157.979 155.111 157.979 155.111L208.178 174.33C208.475 174.531 309.391 194.189 309.391 202.213C309.391 207.597 304.195 213.48 295.587 219.135C287.715 212.916 228.671 196.857 230.913 207.996C234.332 224.978 206.835 239.507 223.804 243.549C213.957 245.047 204.035 245.908 194.502 245.908C188.706 245.908 165.659 245.507 151.384 231.391C137.554 217.721 146.292 193.724 151.244 182.97Z" fill="url(#paint29_linear_269_1651)"/>
<path d="M228.149 40.4598C228.149 40.4598 231.243 46.8046 225.151 51.2337C225.151 51.2337 227.459 59.9676 226.38 65.6042C225.301 71.2409 222.361 72.5729 222.201 75.5356C222.041 78.4984 223.61 85.9525 212.055 97.0694C212.055 97.0694 206.723 96.8688 203.377 95.8658C200.032 94.8629 203.897 110.509 203.897 110.509L177.976 96.3854C177.976 96.3854 183.39 85.3527 185.642 77.1284C188.366 67.1909 180.616 53.2396 191.702 43.557C202.788 33.8743 217.807 45.4767 228.149 40.4598Z" fill="#F17E59"/>
<path style="mix-blend-mode:multiply" d="M185.63 77.1343C186 75.7086 186.201 74.2443 186.23 72.7714C186.695 72.7881 187.142 72.9548 187.505 73.2468C192.757 77.4774 201.377 79.383 201.523 86.6746C201.587 88.4298 197.526 100.477 198.183 107.418L177.966 96.3853C177.966 96.3853 183.396 85.3446 185.63 77.1343Z" fill="url(#paint30_linear_269_1651)"/>
<path d="M187.777 48.319C183.58 55.9416 186.522 65.0586 186.24 72.7714C186.172 72.7574 186.128 72.7714 186.058 72.7534C186.11 64.9924 183.446 55.9115 187.777 48.319Z" fill="#F17E59"/>
<path d="M228.149 40.4598C228.149 40.4598 231.183 46.7023 225.287 51.1254C222.677 50.4714 222.769 56.5093 222.625 59.4259C222.405 63.9072 218.812 66.0195 217.629 72.0533C217.608 72.1649 217.55 72.2661 217.464 72.3398C217.378 72.4136 217.27 72.4555 217.157 72.4585C217.044 72.4616 216.933 72.4256 216.843 72.3566C216.753 72.2876 216.69 72.1897 216.663 72.0794C215.57 67.6222 213.298 67.1769 208.637 71.7043C206.327 73.9469 204.608 76.4483 202.454 78.7672C198.189 83.3608 185.299 80.1252 184.851 80.1433C185.169 79.1547 185.436 78.1504 185.65 77.1344C187.767 67.0505 180.624 53.2456 191.71 43.563C202.796 33.8803 217.807 45.4766 228.149 40.4598Z" fill="black"/>
<g style="mix-blend-mode:multiply">
<path d="M214.809 68.1097C214.975 68.3721 215.033 68.6898 214.968 68.9942C214.903 69.2985 214.722 69.5651 214.463 69.7365C214.387 69.7906 211.807 71.6662 210.484 77.9307C210.423 78.2201 210.256 78.476 210.016 78.6482C209.777 78.8204 209.482 78.8965 209.189 78.8615C209.154 78.8574 209.119 78.8514 209.085 78.8434C208.933 78.8113 208.79 78.7494 208.662 78.6614C208.534 78.5734 208.425 78.461 208.34 78.3306C208.256 78.2001 208.198 78.0543 208.17 77.9014C208.141 77.7484 208.143 77.5914 208.176 77.4393C209.741 70.0173 213.04 67.8369 213.172 67.7486C213.303 67.6634 213.449 67.6051 213.603 67.5771C213.756 67.5492 213.913 67.5521 214.066 67.5856C214.218 67.6192 214.362 67.6829 214.49 67.7728C214.617 67.8628 214.726 67.9773 214.809 68.1097Z" fill="url(#paint31_linear_269_1651)"/>
</g>
<path d="M228.934 165.462C223.46 175.331 229.988 188.913 225.407 209.466C225.407 209.466 169.926 206.554 154.03 188.163C154.03 188.163 153.109 150.116 153.109 137.995C153.109 125.046 150.656 87.3646 186.778 95.2139C216.951 101.771 246.311 134.137 228.934 165.462Z" fill="white"/>
<path d="M233.227 154.257C231.234 153.416 229.305 152.431 227.455 151.308C221.532 147.743 216.322 142.807 211.143 138.269C205.933 133.696 200.301 129.475 195.991 123.999C192.022 118.952 188.844 113.336 184.729 108.397C181.417 104.429 180.822 98.8487 183.598 94.6262C150.804 89.6294 153.108 125.437 153.108 137.995C153.108 150.116 154.03 188.163 154.03 188.163C169.926 206.554 225.407 209.466 225.407 209.466C229.987 188.913 223.46 175.331 228.934 165.462C230.901 161.956 232.347 158.182 233.227 154.257Z" fill="url(#paint32_linear_269_1651)"/>
<path style="mix-blend-mode:screen" opacity="0.5" d="M174.441 131.848C174.441 132.278 174.441 132.723 174.441 133.166C174.443 132.612 174.477 132.058 174.545 131.507C174.545 131.507 174.521 131.626 174.441 131.848Z" fill="url(#paint33_linear_269_1651)"/>
<path d="M211.879 107.133C218.982 106.794 231.39 114.543 236.746 120.489C242.102 126.434 245.964 126.29 247.856 131.218C249.749 136.147 255.682 137.918 256.108 139.896C256.534 141.874 263.437 140.414 266.139 148.347C266.139 148.347 272.176 146.833 275.626 151.292C279.075 155.751 282.944 151.894 283.556 164.782C284.017 174.456 277.84 178.009 271.816 178.298C265.793 178.587 254.859 176.998 250.46 172.854C243.094 165.909 209.667 155.534 203.745 138.324C197.823 121.113 196.322 107.879 211.879 107.133Z" fill="white"/>
<path d="M283.556 164.782C283.24 158.162 282.063 155.956 280.524 154.778C280.062 158.389 278.224 161.717 274.441 163.869C269.172 166.866 262.989 165.496 257.707 163.303C256.732 162.902 255.774 162.451 254.815 162.012L252.946 161.153C252.801 161.091 252.431 160.93 251.691 160.599C247.684 158.816 243.821 156.72 239.812 154.953C232.124 151.563 224.4 148.913 217.321 144.219C211.164 140.127 205.667 135.112 201.023 129.349C201.732 132.173 202.664 135.182 203.745 138.324C209.667 155.534 243.094 165.909 250.46 172.854C254.857 176.998 265.791 178.587 271.816 178.298C277.842 178.009 284.017 174.456 283.556 164.782Z" fill="url(#paint34_linear_269_1651)"/>
<path d="M136.699 152.351L212.912 178.496C214.172 178.926 215.267 179.74 216.043 180.825C216.819 181.909 217.237 183.211 217.239 184.546V226.292C217.239 227.326 216.989 228.345 216.511 229.261C216.033 230.177 215.34 230.963 214.493 231.552C213.646 232.141 212.669 232.515 211.646 232.641C210.624 232.768 209.586 232.644 208.621 232.28L132.4 203.504C131.186 203.047 130.14 202.228 129.402 201.159C128.664 200.089 128.269 198.818 128.269 197.517V158.401C128.27 157.384 128.513 156.382 128.976 155.479C129.44 154.575 130.112 153.795 130.936 153.203C131.76 152.612 132.712 152.226 133.715 152.078C134.717 151.93 135.74 152.023 136.699 152.351Z" fill="url(#paint35_linear_269_1651)"/>
<path d="M136.215 154.734L208.743 179.608C209.941 180.02 210.98 180.798 211.715 181.832C212.45 182.867 212.844 184.106 212.842 185.377V225.094C212.842 226.078 212.604 227.047 212.15 227.918C211.695 228.789 211.037 229.536 210.231 230.096C209.426 230.657 208.498 231.013 207.525 231.134C206.553 231.255 205.566 231.138 204.648 230.793L132.118 203.414C130.963 202.978 129.968 202.199 129.266 201.181C128.564 200.163 128.187 198.954 128.187 197.715V160.495C128.187 159.526 128.417 158.572 128.859 157.71C129.3 156.849 129.94 156.106 130.725 155.542C131.51 154.979 132.418 154.612 133.372 154.471C134.327 154.33 135.302 154.421 136.215 154.734Z" fill="url(#paint36_linear_269_1651)"/>
<path d="M210.812 226.607V186.889C210.812 185.619 210.416 184.381 209.68 183.348C208.944 182.315 207.904 181.538 206.707 181.128L134.179 156.255C132.716 155.741 131.113 155.816 129.704 156.463C130.496 155.561 131.538 154.914 132.697 154.606C133.856 154.299 135.079 154.343 136.213 154.734L208.741 179.608C209.939 180.02 210.979 180.797 211.714 181.832C212.449 182.866 212.844 184.106 212.842 185.377V225.094C212.844 226.262 212.509 227.406 211.878 228.387C211.248 229.369 210.348 230.147 209.287 230.627C210.271 229.521 210.814 228.09 210.812 226.607Z" fill="white"/>
<path d="M166.876 185.648C169.033 186.127 170.525 187.698 170.525 189.487V273.087C170.525 275.355 168.161 277.167 165.329 277.07C162.657 276.982 160.549 275.225 160.549 273.087V189.487C160.537 186.849 163.689 184.948 166.876 185.648Z" fill="url(#paint37_linear_269_1651)"/>
<path d="M165.577 187.573C166.412 187.808 167.147 188.311 167.67 189.005C168.193 189.698 168.476 190.545 168.475 191.415V275.014C168.475 275.552 168.367 276.084 168.157 276.579C167.946 277.073 167.639 277.52 167.252 277.892C166.865 278.264 166.408 278.554 165.907 278.744C165.406 278.934 164.871 279.02 164.336 278.998C163.314 278.953 162.349 278.513 161.641 277.771C160.934 277.029 160.539 276.041 160.539 275.014V191.415C160.539 190.8 160.681 190.193 160.953 189.643C161.226 189.092 161.621 188.612 162.109 188.24C162.597 187.868 163.164 187.614 163.765 187.498C164.367 187.383 164.987 187.409 165.577 187.573Z" fill="url(#paint38_linear_269_1651)"/>
<path d="M399.008 179.614H375.809L379.177 200.562C379.299 202.923 382.974 204.788 387.409 204.788C391.843 204.788 395.517 202.925 395.641 200.576L399.008 179.614Z" fill="#14A800"/>
<path style="mix-blend-mode:multiply" d="M390.441 194.355C387.135 196.452 382.986 198.698 379.027 199.631L379.177 200.562C379.299 202.923 382.974 204.788 387.409 204.788C391.843 204.788 395.517 202.925 395.641 200.576L397.791 187.192C395.841 190.048 393.342 192.483 390.441 194.355Z" fill="url(#paint39_linear_269_1651)"/>
<path d="M387.409 176.571C393.99 176.571 399.182 177.931 399 179.564C398.834 181.15 393.642 182.402 387.409 182.402C381.175 182.402 375.975 181.15 375.817 179.564C375.636 177.927 380.828 176.571 387.409 176.571Z" fill="#065C2A"/>
<path d="M387.409 177.124C393.536 177.124 398.389 178.228 398.249 179.556C398.111 180.851 393.252 181.878 387.409 181.878C381.565 181.878 376.705 180.851 376.569 179.556C376.429 178.232 381.281 177.124 387.409 177.124Z" fill="#001E1E"/>
</g>
<defs>
<linearGradient id="paint0_linear_269_1651" x1="177.652" y1="5.22346" x2="177.652" y2="129.935" gradientUnits="userSpaceOnUse">
<stop stop-color="white"/>
<stop offset="1" stop-color="#D8DCDF"/>
</linearGradient>
<linearGradient id="paint1_linear_269_1651" x1="187.367" y1="9.97152" x2="187.367" y2="126.982" gradientUnits="userSpaceOnUse">
<stop stop-color="white"/>
<stop offset="1" stop-color="#D8DCDF"/>
</linearGradient>
<linearGradient id="paint2_linear_269_1651" x1="167.716" y1="9.97151" x2="167.716" y2="126.982" gradientUnits="userSpaceOnUse">
<stop stop-color="white"/>
<stop offset="1" stop-color="#D8DCDF"/>
</linearGradient>
<linearGradient id="paint3_linear_269_1651" x1="177.57" y1="9.98155" x2="177.57" y2="127.229" gradientUnits="userSpaceOnUse">
<stop stop-color="white"/>
<stop offset="1" stop-color="#D8DCDF"/>
</linearGradient>
<linearGradient id="paint4_linear_269_1651" x1="42.8516" y1="251.986" x2="67.0053" y2="212.299" gradientUnits="userSpaceOnUse">
<stop stop-color="white"/>
<stop offset="1" stop-color="#D8DCDF"/>
</linearGradient>
<linearGradient id="paint5_linear_269_1651" x1="107.45" y1="219.123" x2="104.689" y2="206.746" gradientUnits="userSpaceOnUse">
<stop stop-color="white"/>
<stop offset="1" stop-color="#D8DCDF"/>
</linearGradient>
<linearGradient id="paint6_linear_269_1651" x1="119.515" y1="201.234" x2="97.6556" y2="201.234" gradientUnits="userSpaceOnUse">
<stop stop-color="white"/>
<stop offset="1" stop-color="#D8DCDF"/>
</linearGradient>
<linearGradient id="paint7_linear_269_1651" x1="119.515" y1="205.793" x2="97.6556" y2="205.793" gradientUnits="userSpaceOnUse">
<stop stop-color="white"/>
<stop offset="1" stop-color="#D8DCDF"/>
</linearGradient>
<linearGradient id="paint8_linear_269_1651" x1="74.5827" y1="196.456" x2="91.744" y2="196.456" gradientUnits="userSpaceOnUse">
<stop stop-color="white"/>
<stop offset="1" stop-color="#D8DCDF"/>
</linearGradient>
<linearGradient id="paint9_linear_269_1651" x1="316.749" y1="80.9156" x2="324.071" y2="14.6332" gradientUnits="userSpaceOnUse">
<stop stop-color="white"/>
<stop offset="1" stop-color="#D8DCDF"/>
</linearGradient>
<linearGradient id="paint10_linear_269_1651" x1="276.425" y1="81.3007" x2="283.648" y2="15.9069" gradientUnits="userSpaceOnUse">
<stop stop-color="white"/>
<stop offset="1" stop-color="#D8DCDF"/>
</linearGradient>
<linearGradient id="paint11_linear_269_1651" x1="405.673" y1="77.8144" x2="412.995" y2="11.53" gradientUnits="userSpaceOnUse">
<stop stop-color="white"/>
<stop offset="1" stop-color="#D8DCDF"/>
</linearGradient>
<linearGradient id="paint12_linear_269_1651" x1="365.347" y1="78.1995" x2="372.57" y2="12.8037" gradientUnits="userSpaceOnUse">
<stop stop-color="white"/>
<stop offset="1" stop-color="#D8DCDF"/>
</linearGradient>
<linearGradient id="paint13_linear_269_1651" x1="145.514" y1="229.419" x2="145.514" y2="147.154" gradientUnits="userSpaceOnUse">
<stop stop-color="white"/>
<stop offset="1" stop-color="#C4C8CD"/>
</linearGradient>
<linearGradient id="paint14_linear_269_1651" x1="386.376" y1="253.216" x2="386.376" y2="217.843" gradientUnits="userSpaceOnUse">
<stop stop-color="white"/>
<stop offset="1" stop-color="#C4C8CD"/>
</linearGradient>
<linearGradient id="paint15_linear_269_1651" x1="425.163" y1="243.154" x2="404.376" y2="213.904" gradientUnits="userSpaceOnUse">
<stop stop-color="white"/>
<stop offset="1" stop-color="#C4C8CD"/>
</linearGradient>
<linearGradient id="paint16_linear_269_1651" x1="201.62" y1="225.004" x2="182.444" y2="121.838" gradientUnits="userSpaceOnUse">
<stop stop-color="white"/>
<stop offset="1" stop-color="#C4C8CD"/>
</linearGradient>
<linearGradient id="paint17_linear_269_1651" x1="287.313" y1="255.948" x2="281.371" y2="226.118" gradientUnits="userSpaceOnUse">
<stop stop-color="white"/>
<stop offset="0.95" stop-color="#0078EE"/>
</linearGradient>
<linearGradient id="paint18_linear_269_1651" x1="419.781" y1="171.189" x2="252.959" y2="151.291" gradientUnits="userSpaceOnUse">
<stop stop-color="white"/>
<stop offset="0.95" stop-color="#D8DCDF"/>
</linearGradient>
<linearGradient id="paint19_linear_269_1651" x1="208.02" y1="165.021" x2="332.047" y2="202.629" gradientUnits="userSpaceOnUse">
<stop stop-color="white"/>
<stop offset="1" stop-color="#C4C8CD"/>
</linearGradient>
<linearGradient id="paint20_linear_269_1651" x1="422.205" y1="193.736" x2="493.555" y2="170.113" gradientUnits="userSpaceOnUse">
<stop stop-color="white"/>
<stop offset="1" stop-color="#C4C8CD"/>
</linearGradient>
<linearGradient id="paint21_linear_269_1651" x1="330.849" y1="188.051" x2="337.607" y2="165.919" gradientUnits="userSpaceOnUse">
<stop stop-color="white"/>
<stop offset="0.31" stop-color="#F9F9FA"/>
<stop offset="0.73" stop-color="#E7E9EB"/>
<stop offset="1" stop-color="#D8DCDF"/>
</linearGradient>
<linearGradient id="paint22_linear_269_1651" x1="222.113" y1="157.502" x2="228.449" y2="136.764" gradientUnits="userSpaceOnUse">
<stop stop-color="white"/>
<stop offset="0.31" stop-color="#F9F9FA"/>
<stop offset="0.73" stop-color="#E7E9EB"/>
<stop offset="1" stop-color="#D8DCDF"/>
</linearGradient>
<linearGradient id="paint23_linear_269_1651" x1="251.168" y1="124.88" x2="252.451" y2="119.98" gradientUnits="userSpaceOnUse">
<stop stop-color="white"/>
<stop offset="1" stop-color="#46495F"/>
</linearGradient>
<linearGradient id="paint24_linear_269_1651" x1="247.678" y1="98.2353" x2="261.208" y2="56.3548" gradientUnits="userSpaceOnUse">
<stop stop-color="white"/>
<stop offset="1" stop-color="#D8DCDF"/>
</linearGradient>
<linearGradient id="paint25_linear_269_1651" x1="352.003" y1="152.997" x2="353.607" y2="146.914" gradientUnits="userSpaceOnUse">
<stop stop-color="white"/>
<stop offset="1" stop-color="#46495F"/>
</linearGradient>
<linearGradient id="paint26_linear_269_1651" x1="348.092" y1="120.534" x2="364.931" y2="68.4567" gradientUnits="userSpaceOnUse">
<stop stop-color="white"/>
<stop offset="1" stop-color="#D8DCDF"/>
</linearGradient>
<linearGradient id="paint27_linear_269_1651" x1="281.669" y1="236.998" x2="134.7" y2="236.998" gradientUnits="userSpaceOnUse">
<stop stop-color="white"/>
<stop offset="1" stop-color="#C4C8CD"/>
</linearGradient>
<linearGradient id="paint28_linear_269_1651" x1="208.018" y1="255.013" x2="208.018" y2="228.228" gradientUnits="userSpaceOnUse">
<stop stop-color="white"/>
<stop offset="1" stop-color="#C4C8CD"/>
</linearGradient>
<linearGradient id="paint29_linear_269_1651" x1="235.725" y1="233.164" x2="218.276" y2="188.885" gradientUnits="userSpaceOnUse">
<stop stop-color="white"/>
<stop offset="1" stop-color="#0057A8"/>
</linearGradient>
<linearGradient id="paint30_linear_269_1651" x1="202.048" y1="84.6446" x2="188.519" y2="92.0883" gradientUnits="userSpaceOnUse">
<stop stop-color="white"/>
<stop offset="1" stop-color="#BA654B"/>
</linearGradient>
<linearGradient id="paint31_linear_269_1651" x1="207.503" y1="78.5343" x2="212.636" y2="71.5893" gradientUnits="userSpaceOnUse">
<stop stop-color="white"/>
<stop offset="1" stop-color="#BA654B"/>
</linearGradient>
<linearGradient id="paint32_linear_269_1651" x1="211.981" y1="102.606" x2="190.94" y2="158.613" gradientUnits="userSpaceOnUse">
<stop stop-color="white"/>
<stop offset="0.95" stop-color="#D8DCDF"/>
</linearGradient>
<linearGradient id="paint33_linear_269_1651" x1="197.73" y1="56.6701" x2="177.793" y2="121.128" gradientUnits="userSpaceOnUse">
<stop stop-color="white"/>
<stop offset="1"/>
</linearGradient>
<linearGradient id="paint34_linear_269_1651" x1="253.766" y1="118.304" x2="232.727" y2="174.311" gradientUnits="userSpaceOnUse">
<stop stop-color="white"/>
<stop offset="0.95" stop-color="#D8DCDF"/>
</linearGradient>
<linearGradient id="paint35_linear_269_1651" x1="166.44" y1="217.259" x2="178.92" y2="168.356" gradientUnits="userSpaceOnUse">
<stop stop-color="white"/>
<stop offset="1" stop-color="#697182"/>
</linearGradient>
<linearGradient id="paint36_linear_269_1651" x1="164.512" y1="216.503" x2="176.388" y2="169.966" gradientUnits="userSpaceOnUse">
<stop stop-color="white"/>
<stop offset="1" stop-color="#C4C8CD"/>
</linearGradient>
<linearGradient id="paint37_linear_269_1651" x1="165.527" y1="245.072" x2="165.527" y2="190.281" gradientUnits="userSpaceOnUse">
<stop stop-color="white"/>
<stop offset="1" stop-color="#697182"/>
</linearGradient>
<linearGradient id="paint38_linear_269_1651" x1="164.508" y1="246.999" x2="164.508" y2="192.209" gradientUnits="userSpaceOnUse">
<stop stop-color="white"/>
<stop offset="1" stop-color="#C4C8CD"/>
</linearGradient>
<linearGradient id="paint39_linear_269_1651" x1="394.579" y1="195.984" x2="380.974" y2="195.984" gradientUnits="userSpaceOnUse">
<stop stop-color="white"/>
<stop offset="1" stop-color="#0057A8"/>
</linearGradient>
<clipPath id="clip0_269_1651">
<rect width="464" height="280" fill="white"/>
</clipPath>
</defs>
</svg>
